<svg width="638" height="474" viewBox="0 0 638 474" fill="none" xmlns="http://www.w3.org/2000/svg">
<path d="M588 345.126L573.392 345.126C555.719 345.126 541.392 330.799 541.392 313.126L541.392 33C541.392 15.3269 527.066 1.00001 509.392 1.00001L111.425 0.999935C93.7514 0.999936 79.4245 15.3268 79.4245 32.9999L79.4245 364.619C79.4245 381.581 65.6742 395.331 48.7123 395.331C31.7503 395.331 18 409.082 18 426.044L18 442C18 459.673 32.3269 474 50 474L79.4245 474L588 474C605.673 474 620 459.673 620 442L620 377.126C620 359.453 605.673 345.126 588 345.126Z" fill="#FAFAFA"/>
<rect x="38" y="417" width="32" height="32" rx="12" fill="#243B48"/>
<path d="M62 425H56.6667V430.333H51.3333V435.667H46V441" stroke="white" stroke-width="1.5" stroke-linecap="round" stroke-linejoin="round"/>
<rect x="565" y="417" width="32" height="32" rx="12" fill="#243B48"/>
<path d="M589 425H583.667V430.333H578.333V435.667H573V441" stroke="white" stroke-width="1.5" stroke-linecap="round" stroke-linejoin="round"/>
<path d="M509.025 8.5H112C98.7452 8.5 88 19.2452 88 32.5V377.5C88 390.755 98.7452 401.5 112 401.5H453C466.255 401.5 477 390.755 477 377.5V369C477 355.745 487.745 345 501 345H509.205C522.439 345 533.177 334.274 533.199 321.039C533.365 220.29 533.162 143.707 533.027 32.48C533.011 19.2351 522.27 8.5 509.025 8.5Z" fill="#DEE3E6"/>
<path d="M296.883 198.453V210.607H295.857V204.236H294.066V209.979H293.082V198.727H294.066V203.348H295.857V198.453H296.883ZM291.496 199.943V200.832H288.01V206.684C288.905 206.677 289.671 206.656 290.293 206.602C290.922 206.561 291.558 206.472 292.193 206.342L292.289 207.244C291.599 207.388 290.915 207.477 290.238 207.531C289.568 207.572 288.728 207.6 287.723 207.6H286.943V199.943H291.496ZM309.01 198.453V210.607H307.971V198.453H309.01ZM306.59 198.713V209.992H305.564V206H303.623C303.411 206.608 303.104 207.087 302.714 207.422C302.324 207.757 301.866 207.928 301.354 207.928C300.827 207.928 300.369 207.757 299.973 207.408C299.583 207.066 299.275 206.574 299.063 205.938C298.852 205.303 298.742 204.558 298.742 203.703C298.742 202.849 298.852 202.104 299.063 201.468C299.275 200.832 299.583 200.34 299.973 199.998C300.369 199.649 300.827 199.479 301.354 199.479C301.866 199.479 302.324 199.649 302.714 199.984C303.104 200.319 303.411 200.798 303.623 201.406H305.564V198.713H306.59ZM301.354 200.49C301.025 200.49 300.738 200.62 300.492 200.88C300.253 201.14 300.068 201.509 299.932 201.994C299.809 202.479 299.74 203.047 299.74 203.703C299.74 204.353 299.809 204.92 299.932 205.405C300.068 205.891 300.253 206.26 300.492 206.52C300.738 206.779 301.025 206.909 301.354 206.902C301.675 206.909 301.962 206.779 302.208 206.52C302.454 206.26 302.646 205.891 302.775 205.405C302.912 204.92 302.98 204.353 302.98 203.703C302.98 203.054 302.912 202.486 302.775 201.994C302.646 201.516 302.454 201.14 302.215 200.88C301.969 200.62 301.682 200.49 301.354 200.49ZM303.855 202.295C303.938 202.726 303.979 203.19 303.979 203.703C303.979 204.195 303.938 204.66 303.862 205.098H305.564V202.295H303.855ZM312.168 199.615V202.582H314.807V199.615H315.805V207.572H311.143V199.615H312.168ZM312.168 206.684H314.807V203.457H312.168V206.684ZM321.109 198.453V210.607H320.07V204.168H318.375V209.992H317.35V198.713H318.375V203.279H320.07V198.453H321.109ZM332.812 198.453V204.77H331.76V198.453H332.812ZM332.826 205.357V208.256H326.004V209.609H333.264V210.471H324.951V207.449H331.76V206.205H324.924V205.357H332.826ZM326.38 198.918L326.387 198.795L327.439 198.822C327.439 198.85 327.439 198.891 327.433 198.945C327.426 198.993 327.412 199.109 327.385 199.273C327.364 199.451 327.33 199.622 327.296 199.793C327.262 199.971 327.2 200.189 327.125 200.442C327.043 200.695 326.954 200.948 326.852 201.188C326.94 201.304 327.043 201.427 327.152 201.557C327.269 201.68 327.433 201.844 327.651 202.049C327.87 202.247 328.096 202.438 328.335 202.609C328.574 202.787 328.861 202.972 329.196 203.156C329.531 203.341 329.88 203.498 330.235 203.628L329.88 204.619C329.47 204.476 329.073 204.291 328.684 204.086C328.301 203.867 327.959 203.648 327.658 203.416C327.364 203.184 327.111 202.972 326.899 202.78C326.688 202.589 326.496 202.391 326.325 202.192C325.607 203.334 324.63 204.195 323.386 204.783L322.935 203.833C323.297 203.662 323.639 203.457 323.953 203.238C324.261 203.006 324.527 202.78 324.746 202.541C324.965 202.309 325.163 202.062 325.341 201.81C325.519 201.557 325.662 201.311 325.771 201.064C325.888 200.832 325.983 200.593 326.065 200.367C326.147 200.142 326.209 199.93 326.25 199.738C326.284 199.554 326.318 199.39 326.339 199.246C326.359 199.103 326.373 198.993 326.38 198.918Z" fill="#465468"/>
<path d="M505 80.5H424C412.954 80.5 404 89.4543 404 100.5V117.5C404 128.546 412.954 137.5 424 137.5H505C516.046 137.5 525 128.546 525 117.5V100.5C525 89.4543 516.046 80.5 505 80.5Z" fill="white" fill-opacity="0.5"/>
<path d="M450.555 113.445V114.348H442.393V110.67H443.445V113.445H450.555ZM449.994 102.453V106.24H451.826V107.143H449.994V111.449H448.928V102.453H449.994ZM440.834 105.003V104.114H443.828V102.535H444.874V104.114H447.383V105.003H444.874C444.792 105.461 444.655 105.919 444.457 106.377C444.594 106.555 444.744 106.732 444.915 106.917C445.086 107.102 445.305 107.313 445.578 107.553C445.845 107.799 446.166 108.031 446.521 108.257C446.891 108.482 447.267 108.667 447.656 108.817L447.28 109.802C446.904 109.658 446.535 109.48 446.18 109.275C445.817 109.07 445.496 108.852 445.223 108.626C444.936 108.4 444.696 108.188 444.491 107.99C444.286 107.792 444.095 107.594 443.917 107.389C443.22 108.476 442.242 109.337 440.991 109.973L440.513 109.036C440.861 108.858 441.183 108.66 441.477 108.455C441.777 108.236 442.037 108.031 442.242 107.826C442.461 107.621 442.652 107.402 442.83 107.177C443.001 106.951 443.145 106.739 443.254 106.541C443.363 106.35 443.459 106.151 443.541 105.953C443.623 105.748 443.685 105.57 443.726 105.434C443.767 105.283 443.801 105.146 443.828 105.003H440.834ZM463.898 104.299V105.188H462.094V106.883H463.898V107.785H462.094V109.672H461.027V102.453H462.094V104.299H463.898ZM456.01 103.191C456.618 103.185 457.165 103.308 457.65 103.547C458.136 103.786 458.512 104.128 458.785 104.559C459.065 104.996 459.202 105.495 459.209 106.049C459.202 106.603 459.065 107.102 458.785 107.525C458.512 107.963 458.136 108.298 457.65 108.537C457.165 108.776 456.618 108.899 456.01 108.906C455.401 108.899 454.848 108.776 454.369 108.537C453.877 108.298 453.501 107.963 453.228 107.525C452.954 107.102 452.817 106.603 452.824 106.049C452.817 105.495 452.954 104.996 453.228 104.559C453.501 104.128 453.877 103.786 454.369 103.547C454.848 103.308 455.401 103.185 456.01 103.191ZM456.01 104.107C455.606 104.101 455.237 104.183 454.916 104.347C454.588 104.511 454.328 104.743 454.15 105.037C453.959 105.331 453.87 105.673 453.877 106.049C453.87 106.425 453.959 106.76 454.15 107.054C454.328 107.348 454.588 107.58 454.916 107.744C455.237 107.915 455.606 107.997 456.01 108.004C456.42 107.997 456.789 107.915 457.117 107.744C457.438 107.58 457.691 107.348 457.883 107.061C458.061 106.76 458.156 106.425 458.156 106.049C458.156 105.673 458.061 105.331 457.883 105.037C457.691 104.743 457.438 104.511 457.117 104.347C456.789 104.183 456.42 104.101 456.01 104.107ZM458.197 110.041C459.024 110.048 459.735 110.137 460.337 110.314C460.938 110.499 461.396 110.759 461.725 111.094C462.039 111.436 462.203 111.846 462.203 112.324C462.203 112.796 462.039 113.199 461.718 113.541C461.396 113.876 460.932 114.136 460.33 114.313C459.729 114.491 459.018 114.58 458.197 114.58C457.37 114.58 456.659 114.491 456.051 114.313C455.442 114.136 454.978 113.876 454.656 113.541C454.328 113.199 454.164 112.796 454.164 112.324C454.164 111.846 454.328 111.436 454.656 111.094C454.978 110.759 455.442 110.499 456.051 110.314C456.652 110.137 457.37 110.048 458.197 110.041ZM458.197 110.916C457.589 110.916 457.062 110.971 456.611 111.08C456.174 111.196 455.832 111.354 455.593 111.572C455.354 111.777 455.237 112.03 455.244 112.324C455.237 112.611 455.354 112.857 455.593 113.069C455.832 113.281 456.174 113.438 456.618 113.555C457.062 113.664 457.589 113.719 458.197 113.719C458.806 113.719 459.339 113.664 459.783 113.555C460.228 113.438 460.569 113.281 460.809 113.069C461.048 112.857 461.164 112.611 461.164 112.324C461.164 112.03 461.048 111.777 460.809 111.572C460.569 111.354 460.228 111.196 459.783 111.08C459.339 110.971 458.806 110.916 458.197 110.916ZM475.082 102.453V114.607H474.057V108.236H472.266V113.979H471.281V102.727H472.266V107.348H474.057V102.453H475.082ZM469.695 103.943V104.832H466.209V110.684C467.104 110.677 467.87 110.656 468.492 110.602C469.121 110.561 469.757 110.472 470.393 110.342L470.488 111.244C469.798 111.388 469.114 111.477 468.438 111.531C467.768 111.572 466.927 111.6 465.922 111.6H465.143V103.943H469.695ZM486.867 110.383V114.607H485.787V111.271H478.691V110.383H486.867ZM486.867 102.453V109.74H485.787V106.541H483.354V105.639H485.787V102.453H486.867ZM480.229 103.198L480.236 103.068L481.289 103.096C481.282 103.178 481.275 103.294 481.262 103.444C481.255 103.595 481.2 103.889 481.104 104.333C481.009 104.777 480.886 105.201 480.729 105.611C480.817 105.741 480.913 105.885 481.029 106.021C481.139 106.172 481.303 106.356 481.508 106.582C481.727 106.814 481.945 107.033 482.178 107.231C482.41 107.43 482.69 107.635 483.019 107.854C483.347 108.059 483.682 108.236 484.023 108.38L483.627 109.351C483.23 109.193 482.848 108.995 482.485 108.77C482.123 108.544 481.795 108.305 481.508 108.045C481.228 107.799 480.981 107.566 480.783 107.348C480.578 107.143 480.387 106.924 480.216 106.698C479.525 107.922 478.575 108.872 477.358 109.535L476.853 108.612C477.208 108.414 477.536 108.195 477.844 107.942C478.145 107.689 478.404 107.437 478.616 107.177C478.828 106.917 479.026 106.65 479.197 106.363C479.375 106.09 479.519 105.816 479.628 105.557C479.737 105.29 479.833 105.037 479.915 104.791C479.997 104.538 480.059 104.312 480.1 104.107C480.134 103.896 480.168 103.718 480.188 103.561C480.209 103.403 480.223 103.287 480.229 103.198Z" fill="#465468"/>
<path d="M387 336.5H213C201.954 336.5 193 345.454 193 356.5V373.5C193 384.546 201.954 393.5 213 393.5H387C398.046 393.5 407 384.546 407 373.5V356.5C407 345.454 398.046 336.5 387 336.5Z" fill="white" fill-opacity="0.5"/>
<path d="M292.568 358.467V367.654H291.488V363.553H289.369V362.65H291.488V358.467H292.568ZM289.602 359.957V360.832H282.506V359.957H285.527V358.453H286.58V359.957H289.602ZM286.047 361.502C286.587 361.502 287.072 361.598 287.503 361.789C287.934 361.974 288.269 362.24 288.508 362.582C288.747 362.931 288.87 363.327 288.877 363.771C288.87 364.216 288.747 364.605 288.508 364.947C288.269 365.282 287.934 365.549 287.503 365.733C287.072 365.918 286.587 366.014 286.047 366.014C285.5 366.014 285.015 365.918 284.584 365.733C284.16 365.549 283.832 365.282 283.586 364.947C283.354 364.605 283.23 364.216 283.23 363.771C283.23 363.327 283.354 362.931 283.586 362.582C283.832 362.24 284.16 361.974 284.584 361.789C285.015 361.598 285.5 361.502 286.047 361.502ZM286.047 362.35C285.698 362.35 285.391 362.411 285.117 362.527C284.851 362.65 284.639 362.821 284.488 363.033C284.331 363.252 284.256 363.498 284.256 363.771C284.256 364.045 284.331 364.291 284.488 364.503C284.639 364.715 284.851 364.879 285.117 365.002C285.391 365.111 285.698 365.173 286.047 365.166C286.396 365.173 286.703 365.111 286.977 365.002C287.243 364.879 287.455 364.715 287.605 364.503C287.763 364.291 287.838 364.045 287.838 363.771C287.838 363.498 287.763 363.252 287.605 363.033C287.455 362.821 287.243 362.65 286.977 362.527C286.703 362.411 286.396 362.35 286.047 362.35ZM292.842 369.445V370.348H284.707V366.834H285.787V369.445H292.842ZM304.258 359.109V360.012C304.258 360.668 304.237 361.256 304.203 361.789C304.169 362.309 304.08 362.91 303.937 363.58H305.721V364.469H294.592V363.58H302.856C303 362.903 303.096 362.309 303.137 361.782C303.171 361.256 303.191 360.668 303.191 360.012V359.998H296V359.109H304.258ZM304.312 366.15V370.443H295.959V366.15H304.312ZM297.025 366.998V369.568H303.246V366.998H297.025ZM316.193 358.453V361.693H318.025V362.609H316.193V365.781H315.127V358.453H316.193ZM316.193 366.479V370.443H308.523V366.479H316.193ZM309.576 367.34V369.568H315.127V367.34H309.576ZM313.965 359.752V360.641H306.719V359.752H309.809V358.357H310.875V359.752H313.965ZM310.342 361.242C310.923 361.242 311.429 361.331 311.873 361.516C312.311 361.693 312.652 361.946 312.898 362.268C313.138 362.596 313.261 362.972 313.268 363.402C313.261 363.84 313.138 364.223 312.898 364.551C312.652 364.879 312.311 365.132 311.873 365.31C311.429 365.487 310.923 365.576 310.342 365.576C309.761 365.576 309.248 365.487 308.797 365.31C308.359 365.132 308.011 364.879 307.771 364.551C307.532 364.223 307.409 363.84 307.416 363.402C307.409 362.972 307.532 362.596 307.771 362.268C308.011 361.946 308.359 361.693 308.797 361.516C309.248 361.331 309.761 361.242 310.342 361.242ZM310.342 362.076C309.966 362.076 309.631 362.131 309.344 362.24C309.05 362.356 308.824 362.514 308.674 362.712C308.51 362.91 308.435 363.143 308.441 363.402C308.435 363.676 308.51 363.915 308.674 364.113C308.824 364.318 309.05 364.476 309.337 364.585C309.624 364.694 309.959 364.749 310.342 364.756C310.718 364.749 311.053 364.694 311.34 364.585C311.627 364.476 311.853 364.318 312.01 364.113C312.167 363.915 312.249 363.676 312.256 363.402C312.249 363.143 312.167 362.91 312.01 362.712C311.846 362.514 311.62 362.356 311.333 362.24C311.046 362.131 310.718 362.076 310.342 362.076Z" fill="#465468"/>
<path d="M376 16.5H181C169.954 16.5 161 25.4543 161 36.5V53.5C161 64.5457 169.954 73.5 181 73.5H376C387.046 73.5 396 64.5457 396 53.5V36.5C396 25.4543 387.046 16.5 376 16.5Z" fill="white" fill-opacity="0.5"/>
<path d="M269.994 38.4531V41.625H271.826V42.5137H269.994V45.7539H268.928V38.4531H269.994ZM266.686 39.3555C266.686 40.374 266.453 41.3037 265.995 42.1445C265.537 42.9854 264.874 43.7168 264.02 44.332C263.165 44.9404 262.14 45.4189 260.957 45.7676L260.506 44.8926C261.483 44.6123 262.331 44.2363 263.062 43.7852C263.794 43.3203 264.368 42.7939 264.785 42.1924C265.209 41.5908 265.455 40.9414 265.53 40.2441H261.039V39.3555H266.686ZM266.152 45.8906C266.966 45.8906 267.67 45.9863 268.271 46.1777C268.866 46.3623 269.324 46.6357 269.652 46.9844C269.967 47.333 270.131 47.75 270.131 48.2285C270.131 48.7139 269.967 49.1377 269.652 49.4863C269.324 49.8418 268.866 50.1152 268.271 50.2998C267.67 50.4844 266.966 50.5801 266.152 50.5801C265.346 50.5801 264.642 50.4844 264.047 50.2998C263.445 50.1152 262.98 49.8418 262.652 49.4863C262.331 49.1377 262.167 48.7139 262.174 48.2285C262.167 47.75 262.331 47.333 262.652 46.9844C262.98 46.6357 263.445 46.3623 264.047 46.1777C264.648 45.9863 265.353 45.8906 266.152 45.8906ZM266.152 46.752C265.564 46.7451 265.052 46.8066 264.607 46.9229C264.17 47.0391 263.828 47.2168 263.596 47.4355C263.35 47.668 263.233 47.9277 263.24 48.2285C263.233 48.5293 263.35 48.7891 263.589 49.0215C263.828 49.2402 264.163 49.418 264.607 49.541C265.052 49.6572 265.564 49.7188 266.152 49.7188C266.747 49.7188 267.26 49.6572 267.704 49.541C268.148 49.418 268.49 49.2402 268.729 49.0215C268.969 48.7891 269.092 48.5293 269.092 48.2285C269.092 47.9277 268.969 47.668 268.729 47.4355C268.49 47.2168 268.148 47.0391 267.704 46.9229C267.26 46.8066 266.747 46.7451 266.152 46.752ZM282.982 38.4531V50.6074H281.957V44.2363H280.166V49.9785H279.182V38.7266H280.166V43.3477H281.957V38.4531H282.982ZM277.596 39.9434V40.832H274.109V46.6836C275.005 46.6768 275.771 46.6562 276.393 46.6016C277.021 46.5605 277.657 46.4717 278.293 46.3418L278.389 47.2441C277.698 47.3877 277.015 47.4766 276.338 47.5312C275.668 47.5723 274.827 47.5996 273.822 47.5996H273.043V39.9434H277.596ZM294.193 38.4531V41.5566H296.025V42.459H294.193V45.7949H293.127V38.4531H294.193ZM290.297 46.123C291.124 46.123 291.842 46.2119 292.443 46.3828C293.045 46.5605 293.503 46.8135 293.824 47.1484C294.146 47.4834 294.303 47.8799 294.303 48.3379C294.303 48.8096 294.146 49.2129 293.824 49.5479C293.503 49.8828 293.045 50.1426 292.443 50.3203C291.842 50.4912 291.124 50.5801 290.297 50.5801C289.47 50.5801 288.752 50.4912 288.144 50.3203C287.535 50.1426 287.07 49.8828 286.749 49.5479C286.428 49.2129 286.264 48.8096 286.264 48.3379C286.264 47.8799 286.428 47.4834 286.749 47.1484C287.07 46.8135 287.535 46.5605 288.144 46.3828C288.752 46.2119 289.47 46.123 290.297 46.123ZM290.297 46.9844C289.688 46.9844 289.162 47.0391 288.718 47.1484C288.273 47.251 287.932 47.4082 287.692 47.6133C287.453 47.8184 287.337 48.0576 287.344 48.3379C287.337 48.625 287.453 48.8711 287.692 49.0762C287.932 49.2881 288.273 49.4453 288.711 49.5547C289.162 49.6641 289.688 49.7188 290.297 49.7188C290.912 49.7188 291.445 49.6641 291.883 49.5547C292.334 49.4453 292.669 49.2881 292.908 49.0762C293.147 48.8711 293.264 48.625 293.264 48.3379C293.264 48.0576 293.147 47.8115 292.908 47.6133C292.669 47.4082 292.327 47.251 291.883 47.1484C291.438 47.0391 290.905 46.9844 290.297 46.9844ZM288.027 39.2051C288.034 39.1436 288.034 39.1025 288.034 39.0684L289.087 39.0957L289.08 39.1572C289.039 39.957 288.854 40.7842 288.52 41.6455C288.608 41.7754 288.704 41.9053 288.813 42.0488C288.923 42.1924 289.087 42.377 289.299 42.6094C289.511 42.835 289.736 43.0537 289.969 43.252C290.201 43.4502 290.481 43.6621 290.816 43.874C291.145 44.0859 291.479 44.2637 291.828 44.4072L291.432 45.3779C291.035 45.2207 290.652 45.0225 290.283 44.7969C289.921 44.5645 289.593 44.3252 289.312 44.0723C289.025 43.8193 288.779 43.5938 288.574 43.375C288.369 43.1699 288.178 42.9512 288.007 42.7256C287.316 43.9492 286.366 44.8994 285.149 45.5625L284.644 44.6396C284.999 44.4414 285.327 44.2227 285.635 43.9629C285.936 43.7168 286.195 43.457 286.407 43.2109C286.619 42.9512 286.817 42.6846 286.988 42.3906C287.166 42.0967 287.31 41.8301 287.419 41.5703C287.528 41.3242 287.624 41.0645 287.713 40.791C287.795 40.5312 287.856 40.2988 287.891 40.1143C287.932 39.9297 287.966 39.7451 287.986 39.5605C288.007 39.376 288.021 39.2598 288.027 39.2051Z" fill="#465468"/>
<path d="M441 15.5H424C412.954 15.5 404 24.4543 404 35.5V52.5C404 63.5457 412.954 72.5 424 72.5H441C452.046 72.5 461 63.5457 461 52.5V35.5C461 24.4543 452.046 15.5 441 15.5Z" fill="white" fill-opacity="0.5"/>
<path d="M426.098 45.2188C426.925 45.2188 427.643 45.3008 428.244 45.4785C428.846 45.6426 429.304 45.8955 429.625 46.2168C429.946 46.5449 430.104 46.9346 430.104 47.3926C430.104 47.8506 429.946 48.2471 429.625 48.5684C429.304 48.8965 428.846 49.1426 428.244 49.3135C427.649 49.4844 426.932 49.5664 426.098 49.5664C425.257 49.5664 424.539 49.4844 423.938 49.3135C423.329 49.1426 422.871 48.8965 422.543 48.5684C422.229 48.2471 422.064 47.8506 422.064 47.3926C422.064 46.9346 422.229 46.5449 422.543 46.2168C422.871 45.8955 423.329 45.6426 423.938 45.4785C424.546 45.3008 425.264 45.2188 426.098 45.2188ZM426.098 46.0664C425.482 46.0664 424.949 46.1211 424.512 46.2168C424.061 46.3262 423.726 46.4766 423.486 46.6748C423.254 46.873 423.138 47.1123 423.145 47.3926C423.138 47.6729 423.254 47.9121 423.486 48.1172C423.726 48.3154 424.061 48.4727 424.512 48.5752C424.949 48.6777 425.482 48.7324 426.098 48.7324C426.713 48.7324 427.246 48.6777 427.684 48.5752C428.135 48.4727 428.47 48.3154 428.709 48.1172C428.948 47.9121 429.064 47.6729 429.064 47.3926C429.064 46.9756 428.805 46.6475 428.278 46.415C427.752 46.1826 427.027 46.0664 426.098 46.0664ZM429.994 37.4531V40.625H431.826V41.5137H429.994V44.918H428.928V37.4531H429.994ZM420.834 39.832V38.9434H423.814V37.3984H424.881V38.9434H427.383V39.832H424.881C424.806 40.2764 424.669 40.7207 424.478 41.1514C424.614 41.3223 424.771 41.4932 424.942 41.6641C425.113 41.835 425.332 42.04 425.605 42.2656C425.865 42.498 426.18 42.7168 426.535 42.9287C426.897 43.1406 427.267 43.3115 427.649 43.4551L427.287 44.4395C426.911 44.3027 426.542 44.1387 426.187 43.9336C425.831 43.7422 425.51 43.5303 425.236 43.3184C424.949 43.0996 424.71 42.8945 424.505 42.7031C424.3 42.5186 424.108 42.3271 423.931 42.1289C423.227 43.1611 422.249 43.9883 420.984 44.6035L420.52 43.6602C421.9 42.9834 422.878 42.0605 423.445 40.8779C423.616 40.5293 423.739 40.1807 423.814 39.832H420.834ZM442.34 38.6836V39.9004V40.0508C442.333 41.0557 442.299 41.9512 442.244 42.7441C442.196 43.5439 442.073 44.46 441.889 45.5059L440.795 45.3828C440.938 44.665 441.048 43.9814 441.109 43.3457C441.178 42.71 441.219 42.1426 441.232 41.6436C441.253 41.1445 441.26 40.5635 441.26 39.9004V39.5723H433.768V38.6836H442.34ZM443.666 46.9961V47.8848H432.592V46.9961H436.939V42.6484H437.992V46.9961H443.666Z" fill="#465468"/>
<path d="M133 15.5H116C104.954 15.5 96 24.4543 96 35.5V52.5C96 63.5457 104.954 72.5 116 72.5H133C144.046 72.5 153 63.5457 153 52.5V35.5C153 24.4543 144.046 15.5 133 15.5Z" fill="white" fill-opacity="0.5"/>
<path d="M118.098 45.2188C118.925 45.2188 119.643 45.3008 120.244 45.4785C120.846 45.6426 121.304 45.8955 121.625 46.2168C121.946 46.5449 122.104 46.9346 122.104 47.3926C122.104 47.8506 121.946 48.2471 121.625 48.5684C121.304 48.8965 120.846 49.1426 120.244 49.3135C119.649 49.4844 118.932 49.5664 118.098 49.5664C117.257 49.5664 116.539 49.4844 115.938 49.3135C115.329 49.1426 114.871 48.8965 114.543 48.5684C114.229 48.2471 114.064 47.8506 114.064 47.3926C114.064 46.9346 114.229 46.5449 114.543 46.2168C114.871 45.8955 115.329 45.6426 115.938 45.4785C116.546 45.3008 117.264 45.2188 118.098 45.2188ZM118.098 46.0664C117.482 46.0664 116.949 46.1211 116.512 46.2168C116.061 46.3262 115.726 46.4766 115.486 46.6748C115.254 46.873 115.138 47.1123 115.145 47.3926C115.138 47.6729 115.254 47.9121 115.486 48.1172C115.726 48.3154 116.061 48.4727 116.512 48.5752C116.949 48.6777 117.482 48.7324 118.098 48.7324C118.713 48.7324 119.246 48.6777 119.684 48.5752C120.135 48.4727 120.47 48.3154 120.709 48.1172C120.948 47.9121 121.064 47.6729 121.064 47.3926C121.064 46.9756 120.805 46.6475 120.278 46.415C119.752 46.1826 119.027 46.0664 118.098 46.0664ZM121.994 37.4531V40.625H123.826V41.5137H121.994V44.918H120.928V37.4531H121.994ZM112.834 39.832V38.9434H115.814V37.3984H116.881V38.9434H119.383V39.832H116.881C116.806 40.2764 116.669 40.7207 116.478 41.1514C116.614 41.3223 116.771 41.4932 116.942 41.6641C117.113 41.835 117.332 42.04 117.605 42.2656C117.865 42.498 118.18 42.7168 118.535 42.9287C118.897 43.1406 119.267 43.3115 119.649 43.4551L119.287 44.4395C118.911 44.3027 118.542 44.1387 118.187 43.9336C117.831 43.7422 117.51 43.5303 117.236 43.3184C116.949 43.0996 116.71 42.8945 116.505 42.7031C116.3 42.5186 116.108 42.3271 115.931 42.1289C115.227 43.1611 114.249 43.9883 112.984 44.6035L112.52 43.6602C113.9 42.9834 114.878 42.0605 115.445 40.8779C115.616 40.5293 115.739 40.1807 115.814 39.832H112.834ZM134.34 38.6836V39.9004V40.0508C134.333 41.0557 134.299 41.9512 134.244 42.7441C134.196 43.5439 134.073 44.46 133.889 45.5059L132.795 45.3828C132.938 44.665 133.048 43.9814 133.109 43.3457C133.178 42.71 133.219 42.1426 133.232 41.6436C133.253 41.1445 133.26 40.5635 133.26 39.9004V39.5723H125.768V38.6836H134.34ZM135.666 46.9961V47.8848H124.592V46.9961H128.939V42.6484H129.992V46.9961H135.666Z" fill="#465468"/>
<path d="M509 409.5H217C203.745 409.5 193 420.245 193 433.5V442.5C193 455.755 203.745 466.5 217 466.5H509C522.255 466.5 533 455.755 533 442.5V433.5C533 420.245 522.255 409.5 509 409.5Z" fill="#DEE3E6"/>
<path d="M345.718 433.6V432.711H352.342V433.6H349.833C349.758 434.427 349.601 435.261 349.348 436.102C349.45 436.307 349.56 436.519 349.676 436.73C349.792 436.942 349.963 437.223 350.182 437.558C350.4 437.893 350.626 438.207 350.865 438.501C351.098 438.795 351.378 439.089 351.699 439.396C352.027 439.697 352.362 439.95 352.697 440.148L352.164 441.051C351.788 440.825 351.426 440.565 351.07 440.258C350.729 439.95 350.414 439.636 350.141 439.301C349.867 438.966 349.628 438.658 349.43 438.357C349.225 438.07 349.033 437.763 348.862 437.455C348.172 439.048 347.208 440.333 345.964 441.317L345.308 440.49C345.684 440.189 346.039 439.854 346.354 439.485C346.682 439.116 346.955 438.754 347.174 438.392C347.406 438.029 347.604 437.653 347.789 437.25C347.967 436.847 348.11 436.484 348.227 436.149C348.336 435.814 348.432 435.473 348.514 435.124C348.589 434.775 348.65 434.488 348.685 434.256C348.719 434.037 348.753 433.812 348.773 433.6H345.718ZM354.898 431.453V436.375H356.936V437.291H354.898V443.607H353.832V431.453H354.898ZM368.721 441.146V442.049H357.592V441.146H362.596V438.18H358.904V432.479H367.34V438.18H363.648V441.146H368.721ZM359.957 433.34V437.318H366.301V433.34H359.957ZM379.713 431.453V437.77H378.66V431.453H379.713ZM379.727 438.357V441.256H372.904V442.609H380.164V443.471H371.852V440.449H378.66V439.205H371.824V438.357H379.727ZM373.28 431.918L373.287 431.795L374.34 431.822C374.34 431.85 374.34 431.891 374.333 431.945C374.326 431.993 374.312 432.109 374.285 432.273C374.265 432.451 374.23 432.622 374.196 432.793C374.162 432.971 374.101 433.189 374.025 433.442C373.943 433.695 373.854 433.948 373.752 434.188C373.841 434.304 373.943 434.427 374.053 434.557C374.169 434.68 374.333 434.844 374.552 435.049C374.771 435.247 374.996 435.438 375.235 435.609C375.475 435.787 375.762 435.972 376.097 436.156C376.432 436.341 376.78 436.498 377.136 436.628L376.78 437.619C376.37 437.476 375.974 437.291 375.584 437.086C375.201 436.867 374.859 436.648 374.559 436.416C374.265 436.184 374.012 435.972 373.8 435.78C373.588 435.589 373.396 435.391 373.226 435.192C372.508 436.334 371.53 437.195 370.286 437.783L369.835 436.833C370.197 436.662 370.539 436.457 370.854 436.238C371.161 436.006 371.428 435.78 371.646 435.541C371.865 435.309 372.063 435.062 372.241 434.81C372.419 434.557 372.562 434.311 372.672 434.064C372.788 433.832 372.884 433.593 372.966 433.367C373.048 433.142 373.109 432.93 373.15 432.738C373.185 432.554 373.219 432.39 373.239 432.246C373.26 432.103 373.273 431.993 373.28 431.918Z" fill="#465468"/>
<rect x="562" y="294" width="32" height="32" rx="12" fill="#243B48"/>
<path d="M582 308L584 306L586 308" stroke="white" stroke-width="1.5" stroke-linecap="round" stroke-linejoin="round"/>
<path d="M586 312L584 314L582 312" stroke="white" stroke-width="1.5" stroke-linecap="round" stroke-linejoin="round"/>
<circle cx="574" cy="304" r="2.25" stroke="white" stroke-width="1.5"/>
<path d="M574 308.75C575.795 308.75 577.25 310.205 577.25 312V318.25H570.75V312C570.75 310.205 572.205 308.75 574 308.75Z" stroke="white" stroke-width="1.5"/>
<path d="M135.74 437.27V438.044H131.081V439.098H134.42V441.535H127.717V442.64H134.763V443.401H126.727V440.824H133.442V439.847H126.701V439.098H130.104V438.044H125.47V437.27H135.74ZM126.523 434.039V433.213H130.243V432.179H131.379V433.213H134.699V434.039H131.379C131.31 434.223 131.202 434.407 131.049 434.591C132.078 435.13 133.322 435.524 134.782 435.784L134.617 436.749C134.09 436.654 133.582 436.546 133.093 436.406C132.604 436.279 132.186 436.14 131.817 435.994C131.462 435.848 131.164 435.721 130.929 435.613C130.694 435.505 130.484 435.397 130.294 435.289C129.462 435.879 128.244 436.362 126.638 436.743L126.409 435.791C126.746 435.708 127.076 435.619 127.399 435.524C127.723 435.429 128.072 435.308 128.447 435.162C128.821 435.016 129.17 434.851 129.481 434.654C129.799 434.458 130.053 434.254 130.243 434.039H126.523ZM146.011 432.242V438.298H145.021V432.242H146.011ZM139.688 438.869V440.24H145.021V438.869H146.011V443.376H138.698V438.869H139.688ZM139.688 442.563H145.021V441.04H139.688V442.563ZM139.917 432.801C140.482 432.794 140.99 432.902 141.44 433.118C141.891 433.334 142.24 433.639 142.494 434.032C142.748 434.432 142.875 434.883 142.875 435.391C142.875 435.892 142.748 436.343 142.494 436.736C142.24 437.13 141.891 437.435 141.44 437.65C140.99 437.873 140.482 437.98 139.917 437.98C139.352 437.98 138.844 437.873 138.394 437.65C137.943 437.435 137.594 437.13 137.34 436.736C137.086 436.343 136.959 435.892 136.959 435.391C136.959 434.883 137.086 434.432 137.34 434.032C137.594 433.639 137.943 433.334 138.394 433.118C138.844 432.902 139.352 432.794 139.917 432.801ZM139.917 433.639C139.536 433.632 139.193 433.708 138.889 433.854C138.59 434.007 138.355 434.216 138.184 434.483C138.013 434.75 137.93 435.054 137.937 435.391C137.93 435.727 138.013 436.032 138.184 436.305C138.355 436.571 138.59 436.781 138.889 436.927C139.193 437.079 139.536 437.155 139.917 437.155C140.292 437.155 140.634 437.079 140.933 436.927C141.231 436.781 141.466 436.571 141.644 436.305C141.809 436.032 141.897 435.727 141.897 435.391C141.897 435.054 141.809 434.75 141.644 434.483C141.466 434.216 141.231 434.007 140.933 433.854C140.634 433.708 140.292 433.632 139.917 433.639ZM156.853 432.979V433.969C156.853 434.699 156.833 435.34 156.802 435.905C156.764 436.47 156.675 437.111 156.529 437.828H158.211V438.653H153.552V443.554H152.549V438.653H147.928V437.828H155.52C155.672 437.111 155.767 436.463 155.805 435.898C155.843 435.333 155.862 434.686 155.862 433.969V433.804H149.223V432.979H156.853Z" fill="#465468"/>
<path d="M145 419.182L142 415.5L139 419.182M142 415.5V424.5" stroke="#465468" stroke-linecap="round" stroke-linejoin="round"/>
<path d="M499.74 381.27V382.044H495.081V383.098H498.42V385.535H491.717V386.64H498.763V387.401H490.727V384.824H497.442V383.847H490.701V383.098H494.104V382.044H489.47V381.27H499.74ZM490.523 378.039V377.213H494.243V376.179H495.379V377.213H498.699V378.039H495.379C495.31 378.223 495.202 378.407 495.049 378.591C496.078 379.13 497.322 379.524 498.782 379.784L498.617 380.749C498.09 380.654 497.582 380.546 497.093 380.406C496.604 380.279 496.186 380.14 495.817 379.994C495.462 379.848 495.164 379.721 494.929 379.613C494.694 379.505 494.484 379.397 494.294 379.289C493.462 379.879 492.244 380.362 490.638 380.743L490.409 379.791C490.746 379.708 491.076 379.619 491.399 379.524C491.723 379.429 492.072 379.308 492.447 379.162C492.821 379.016 493.17 378.851 493.481 378.654C493.799 378.458 494.053 378.254 494.243 378.039H490.523ZM510.011 376.242V382.298H509.021V376.242H510.011ZM503.688 382.869V384.24H509.021V382.869H510.011V387.376H502.698V382.869H503.688ZM503.688 386.563H509.021V385.04H503.688V386.563ZM503.917 376.801C504.482 376.794 504.99 376.902 505.44 377.118C505.891 377.334 506.24 377.639 506.494 378.032C506.748 378.432 506.875 378.883 506.875 379.391C506.875 379.892 506.748 380.343 506.494 380.736C506.24 381.13 505.891 381.435 505.44 381.65C504.99 381.873 504.482 381.98 503.917 381.98C503.352 381.98 502.844 381.873 502.394 381.65C501.943 381.435 501.594 381.13 501.34 380.736C501.086 380.343 500.959 379.892 500.959 379.391C500.959 378.883 501.086 378.432 501.34 378.032C501.594 377.639 501.943 377.334 502.394 377.118C502.844 376.902 503.352 376.794 503.917 376.801ZM503.917 377.639C503.536 377.632 503.193 377.708 502.889 377.854C502.59 378.007 502.355 378.216 502.184 378.483C502.013 378.75 501.93 379.054 501.937 379.391C501.93 379.727 502.013 380.032 502.184 380.305C502.355 380.571 502.59 380.781 502.889 380.927C503.193 381.079 503.536 381.155 503.917 381.155C504.292 381.155 504.634 381.079 504.933 380.927C505.231 380.781 505.466 380.571 505.644 380.305C505.809 380.032 505.897 379.727 505.897 379.391C505.897 379.054 505.809 378.75 505.644 378.483C505.466 378.216 505.231 378.007 504.933 377.854C504.634 377.708 504.292 377.632 503.917 377.639ZM520.853 376.979V377.969C520.853 378.699 520.833 379.34 520.802 379.905C520.764 380.47 520.675 381.111 520.529 381.828H522.211V382.653H517.552V387.554H516.549V382.653H511.928V381.828H519.52C519.672 381.111 519.767 380.463 519.805 379.898C519.843 379.333 519.862 378.686 519.862 377.969V377.804H513.223V376.979H520.853Z" fill="#465468"/>
<path d="M509 363.182L506 359.5L503 363.182M506 359.5V368.5" stroke="#465468" stroke-linecap="round" stroke-linejoin="round"/>
<rect x="481" y="28.5" width="32" height="32" rx="12" fill="#243B48"/>
<path d="M505 36.5H499.667V41.8333H494.333V47.1667H489V52.5" stroke="white" stroke-width="1.5" stroke-linecap="round" stroke-linejoin="round"/>
</svg>
