<svg width="24" height="24" viewBox="0 0 24 24" fill="none" xmlns="http://www.w3.org/2000/svg">
<path d="M10.7996 12L14.6996 8.10005C14.8829 7.91672 14.9746 7.68338 14.9746 7.40005C14.9746 7.11672 14.8829 6.88338 14.6996 6.70005C14.5163 6.51672 14.2829 6.42505 13.9996 6.42505C13.7163 6.42505 13.4829 6.51672 13.2996 6.70005L8.69961 11.3C8.59961 11.4 8.52878 11.5084 8.48711 11.625C8.44544 11.7417 8.42461 11.8667 8.42461 12C8.42461 12.1334 8.44544 12.2584 8.48711 12.375C8.52878 12.4917 8.59961 12.6 8.69961 12.7L13.2996 17.3C13.4829 17.4834 13.7163 17.575 13.9996 17.575C14.2829 17.575 14.5163 17.4834 14.6996 17.3C14.8829 17.1167 14.9746 16.8834 14.9746 16.6C14.9746 16.3167 14.8829 16.0834 14.6996 15.9L10.7996 12Z" fill="#64748B"/>
</svg>
