<svg width="28" height="20" viewBox="0 0 28 20" fill="none" xmlns="http://www.w3.org/2000/svg">
<path d="M27.4069 3.12838C27.0792 1.89791 26.1591 0.938873 24.9319 0.604795C22.7641 1.37328e-07 13.9898 0 13.9898 0C13.9898 0 5.23592 1.37328e-07 3.06812 0.604795C1.86135 0.938153 0.920788 1.89791 0.572668 3.12838C6.73414e-08 5.33876 0 9.9892 0 9.9892C0 9.9892 6.73414e-08 14.6396 0.572668 16.8716C0.920082 18.0812 1.86135 19.0611 3.06812 19.3952C5.23592 20 13.9898 20 13.9898 20C13.9898 20 22.7641 20 24.9319 19.3952C26.1591 19.0618 27.0792 18.0812 27.4069 16.8716C28 14.6404 28 9.9892 28 9.9892C28 9.9892 28 5.33876 27.4069 3.12838ZM11.2083 14.2861V5.71459L18.4694 9.98992L11.2083 14.2861Z" fill="white"/>
</svg>
