<svg width="32" height="32" viewBox="0 0 32 32" fill="none" xmlns="http://www.w3.org/2000/svg">
<path d="M16 0C24.8366 0 32 7.16344 32 16C32 24.8366 24.8366 32 16 32C7.16344 32 0 24.8366 0 16C0 7.16344 7.16344 0 16 0ZM18 10.4248C17.7167 10.4248 17.4831 10.5169 17.2998 10.7002L12.6992 15.2998C12.5993 15.3998 12.529 15.5084 12.4873 15.625C12.4456 15.7417 12.4248 15.8667 12.4248 16C12.4248 16.1333 12.4456 16.2583 12.4873 16.375C12.529 16.4916 12.5993 16.6002 12.6992 16.7002L17.2998 21.2998C17.4831 21.4831 17.7167 21.5752 18 21.5752C18.2831 21.5751 18.516 21.483 18.6992 21.2998C18.8826 21.1165 18.9746 20.8829 18.9746 20.5996C18.9745 20.3165 18.8825 20.0836 18.6992 19.9004L14.7998 16L18.6992 12.0996C18.8825 11.9164 18.9745 11.6836 18.9746 11.4004C18.9746 11.1171 18.8826 10.8835 18.6992 10.7002C18.516 10.517 18.2831 10.4249 18 10.4248Z" fill="white" fill-opacity="0.5"/>
</svg>
